<svg width="114" height="114" viewBox="0 0 114 114" fill="none" xmlns="http://www.w3.org/2000/svg">
<path d="M114 57.3013L89 100.603L25 100.603L5.16363e-07 57.3013L25 14L89 14L114 57.3013Z" fill="url(#paint0_linear_28_637)"/>
<path d="M23.6345 68.8334V62.1254L39.9625 39.4014H50.6225L34.7625 62.1254L29.8745 60.6694H58.3185V68.8334H23.6345ZM42.8745 75.8014V68.8334L43.1865 60.6694V54.4814H52.9105V75.8014H42.8745ZM60.2006 75.8014V69.3534L73.8246 56.6134C74.7953 55.7121 75.506 54.9148 75.9566 54.2214C76.442 53.5281 76.754 52.9041 76.8926 52.3494C77.066 51.7601 77.1526 51.2228 77.1526 50.7374C77.1526 49.5588 76.754 48.6401 75.9566 47.9814C75.194 47.3228 74.0326 46.9934 72.4726 46.9934C71.1553 46.9934 69.9246 47.2881 68.7806 47.8774C67.6366 48.4668 66.7006 49.3508 65.9726 50.5294L58.3286 46.2654C59.6806 43.9774 61.6393 42.1401 64.2046 40.7534C66.77 39.3668 69.838 38.6734 73.4086 38.6734C76.2166 38.6734 78.678 39.1241 80.7926 40.0254C82.9073 40.9268 84.554 42.2094 85.7326 43.8734C86.946 45.5374 87.5526 47.4961 87.5526 49.7494C87.5526 50.9281 87.3966 52.1068 87.0846 53.2854C86.7726 54.4294 86.166 55.6601 85.2646 56.9774C84.398 58.2601 83.098 59.6988 81.3646 61.2934L70.5486 71.2774L68.8326 67.6374H88.5406V75.8014H60.2006Z" fill="white"/>
<defs>
<linearGradient id="paint0_linear_28_637" x1="2.00002" y1="14" x2="2.00002" y2="100.603" gradientUnits="userSpaceOnUse">
<stop stop-color="#FF9F46"/>
<stop offset="1" stop-color="#FF7F57"/>
</linearGradient>
</defs>
</svg>
